<svg width="2000" viewBox="0 0 1588 156" fill="none" xmlns="http://www.w3.org/2000/svg">
<path id="bottom-wave" fill-rule="evenodd" clip-rule="evenodd" d="M1339.37 149.943C1476.69 149.943 1588 116.434 1588 75.0985C1588 33.7631 1476.69 0.25422 1339.37 0.25422C1253.04 0.25422 1177.03 -3.36903 1132.45 16.7418C1086.89 -0.35737 1016.85 0.25422 938.364 0.25422C868.559 0.25422 803.869 7.79626 758.711 21.7418C713.553 7.79626 652.071 5.56575 582.267 5.56575C518.072 5.56575 459.559 6.33814 415.446 18.3617C371.334 6.33814 312.821 5.56575 248.626 5.56575C111.314 5.56575 0 39.0747 0 80.41C0 121.745 111.314 155.254 248.626 155.254C312.821 155.254 371.334 147.93 415.446 135.907C459.559 147.93 518.072 155.254 582.267 155.254C652.071 155.254 715.157 146.594 760.315 132.649C805.473 146.594 868.559 155.254 938.364 155.254C1024.7 155.254 1100.76 142.007 1145.33 121.896C1190.9 138.995 1260.89 149.943 1339.37 149.943Z" fill="#1e3a8a"/>
</svg>
