<svg viewBox="0 0 178 178" xmlns="http://www.w3.org/2000/svg" xml:space="preserve" style="fill-rule:evenodd;clip-rule:evenodd;stroke-linejoin:round;stroke-miterlimit:2">
  <g transform="translate(-195.716 -234.327)">
    <g id="whole-logo" transform="matrix(.88889 0 0 .88889 187.453 225.396)">
      <g id="service">
        <path d="M53.418 1375.39c.678-.61 1.053-1.27 1.127-1.97.073-.7-.104-1.66-.532-2.88-1.029-2.36-1.557-4.35-1.584-5.96-.028-1.62.68-3.08 2.124-4.39 1.428-1.29 3.072-1.82 4.934-1.59 1.861.23 3.541 1.15 5.038 2.76 1.52 1.64 2.254 3.42 2.203 5.35-.052 1.92-.853 3.56-2.406 4.91l-.094.04-3.024-3.26c.797-.72 1.261-1.5 1.39-2.34.129-.84-.138-1.62-.803-2.34-.621-.67-1.311-1-2.068-1.01-.758 0-1.448.28-2.07.85-.574.51-.853 1.15-.837 1.9.016.75.276 1.85.778 3.29.954 2.14 1.384 4 1.29 5.6-.094 1.6-.871 3.06-2.33 4.38-1.508 1.36-3.148 1.93-4.922 1.71-1.774-.22-3.424-1.15-4.951-2.8-1.52-1.64-2.352-3.49-2.497-5.57-.145-2.07.706-3.91 2.553-5.51l.094-.04 3.035 3.27c-1.077.97-1.642 1.9-1.696 2.77-.054.87.339 1.76 1.179 2.67.657.71 1.336 1.06 2.037 1.06.7-.01 1.378-.3 2.032-.9ZM76.052 1386.96l-6.758-4.1-3.501 5.62 7.946 4.82-1.929 3.1-11.885-7.22 12.374-19.85 11.857 7.19-1.929 3.1-7.919-4.81-3.085 4.95 6.758 4.11-1.929 3.09ZM87.671 1392.69l-2.493 8.94-4.443-1.21 6.267-22.46 7.429 2.02c2.242.61 3.839 1.67 4.791 3.19.951 1.51 1.137 3.31.557 5.39-.327 1.17-.875 2.11-1.644 2.81-.769.71-1.734 1.17-2.897 1.4 1.059.71 1.72 1.58 1.983 2.63.264 1.05.206 2.25-.173 3.61l-.443 1.59a9.966 9.966 0 0 0-.335 2.04c-.051.74.062 1.32.338 1.74l-.09.33-4.599-1.25c-.273-.43-.353-1.03-.24-1.8a18.9 18.9 0 0 1 .492-2.3l.426-1.53c.313-1.12.324-2.05.032-2.8-.292-.74-.87-1.23-1.736-1.47l-3.222-.87Zm.978-3.51 2.972.81c.907.25 1.671.16 2.293-.25.621-.42 1.072-1.14 1.354-2.14.287-1.03.281-1.92-.019-2.65-.3-.73-.898-1.22-1.795-1.47l-2.988-.81-1.817 6.51ZM113.264 1399.71l.195.89h.097l.163-.85 3.63-17.47 4.85-.09-6.184 23.43-4.801.08-7.02-23.19 4.85-.09 4.22 17.29ZM136.393 1402.33l-4.444 1.13-5.929-22.56 4.444-1.14 5.929 22.57ZM156.479 1385.39l.088.06c1.235 2.26 1.607 4.25 1.117 5.98-.491 1.73-1.816 3.16-3.975 4.29-2.16 1.13-4.236 1.38-6.227.75-1.992-.63-3.631-2.15-4.918-4.54l-3.305-6.15c-1.282-2.39-1.652-4.57-1.112-6.54.541-1.96 1.857-3.49 3.95-4.59 2.217-1.16 4.206-1.45 5.967-.87 1.76.57 3.275 2 4.544 4.27l.003.11-3.928 2.05c-.67-1.38-1.38-2.26-2.13-2.63-.75-.37-1.661-.28-2.731.28-.917.48-1.43 1.2-1.537 2.17-.107.96.225 2.16.996 3.59l3.323 6.19c.781 1.45 1.622 2.4 2.523 2.83.901.44 1.853.39 2.857-.13.984-.52 1.519-1.15 1.605-1.92.085-.76-.26-1.81-1.038-3.14l3.928-2.06ZM170.108 1370.12l-5.73 5.41 4.623 4.77 6.738-6.37 2.547 2.62-10.077 9.53-16.337-16.84 10.053-9.5 2.548 2.62-6.715 6.35 4.073 4.2 5.73-5.42 2.547 2.63Z" style="fill:#02006d;fill-rule:nonzero" transform="matrix(.51026 0 0 .51216 51.834 -558.995)"/>
      </g>
      <path d="M3.535 66.785h6.187c4.125 19.312 25.5 30 45.563 30 19.875 0 41.25-10.688 45.375-30h6.187c1.875 0 3-2.25 1.5-3.75L95.785 50.472c-.938-.937-2.25-.937-3.188 0L80.035 63.035c-1.5 1.5-.375 3.75 1.5 3.75h6.75c-3.938 10.312-15.938 16.312-27.188 17.812V48.785h9.75c1.313 0 2.25-.938 2.25-2.25v-7.5c0-1.125-.937-2.25-2.25-2.25h-9.75v-.938c7.125-2.437 12-9.187 12-16.875.188-9.937-7.875-18-17.625-18a17.772 17.772 0 0 0-18.187 17.813c0 7.875 4.875 14.625 12 17.062v.938h-9.75c-1.313 0-2.25 1.125-2.25 2.25v7.5c0 1.312.937 2.25 2.25 2.25h9.75v35.812c-11.063-1.5-23.25-7.5-27.188-17.812h6.75c1.875 0 3-2.25 1.5-3.75L17.785 50.472c-.938-.937-2.25-.937-3.188 0L2.035 63.035c-1.5 1.5-.375 3.75 1.5 3.75Zm51.75-54c3.187 0 6 2.812 6 6 0 3.375-2.813 6-6 6-3.375 0-6-2.625-6-6 0-3.188 2.625-6 6-6Z" style="fill:#02006d;fill-rule:nonzero" transform="matrix(.34427 0 0 .388 90.845 90.97)" id="anchor"/>
      <path d="M161.032 1180.11c-21.743 0-39.399 17.65-39.399 39.4 0 21.74 17.656 39.39 39.399 39.39 21.742 0 39.398-17.65 39.398-39.39 0-21.75-17.656-39.4-39.398-39.4Zm0 3.79c19.651 0 35.601 15.95 35.601 35.61 0 19.65-15.95 35.6-35.601 35.6s-35.602-15.95-35.602-35.6c0-19.66 15.951-35.61 35.602-35.61Z" style="fill:#02006d" transform="matrix(.8183 0 0 .82176 -22.67 -893.046)" id="extra-skinny-circle"/>
      <g id="matts-marine">
        <path d="m7.314 1270.28 18.593 4.1.046-.09-14.586-12.26 2.832-5.76 22.611 11.11-2.16 4.4-6.569-3.23-8.607-4.69-.061.08 13.252 11.88-1.442 2.93-17.35-3.22-.03.1 8.856 3.87 6.569 3.23-2.16 4.39-22.611-11.11 2.817-5.73ZM42.819 1252.03l-4.359 5.02 3.177 4.55-3.258 3.75-14.364-21.89 3.359-3.86 23.661 11.18-3.258 3.75-4.958-2.5Zm-6.666 1.68 3.042-3.5-8.214-4.13-.068.08 5.24 7.55ZM49.272 1225.29l-4.425 3.55 13.317 16.58-3.832 3.08-13.317-16.58-4.398 3.53-2.46-3.06 12.656-10.17 2.459 3.07ZM68.205 1214.8l-5.032 2.63 9.843 18.85-4.356 2.28-9.843-18.86-5.001 2.61-1.818-3.48 14.389-7.51 1.818 3.48ZM74.778 1211.43l.624 4.96-1.995.74-1.632-4.34-1.718-4.63 3.081-1.14 1.64 4.41ZM94.83 1222.24c-.211-.95-.625-1.66-1.243-2.11-.618-.45-1.612-.8-2.982-1.07-2.753-.33-4.893-.92-6.421-1.77-1.527-.85-2.515-2.3-2.963-4.34-.443-2.01-.06-3.82 1.149-5.41 1.209-1.6 2.969-2.65 5.279-3.16 2.343-.51 4.403-.22 6.178.87 1.775 1.09 2.877 2.72 3.304 4.88l-.011.11-4.665 1.03c-.247-1.13-.73-1.98-1.446-2.56-.717-.57-1.588-.75-2.614-.52-.957.21-1.64.66-2.048 1.36-.408.7-.515 1.49-.322 2.37.178.81.623 1.41 1.335 1.8.713.4 1.877.75 3.494 1.07 2.506.28 4.481.89 5.924 1.84 1.444.96 2.392 2.46 2.844 4.52.468 2.14.124 3.96-1.031 5.48-1.155 1.51-2.91 2.53-5.265 3.05-2.343.51-4.525.27-6.544-.72-2.019-.99-3.281-2.77-3.786-5.34l.012-.11 4.681-1.03c.334 1.52.895 2.55 1.684 3.07.788.52 1.83.64 3.126.36 1.014-.22 1.707-.66 2.078-1.31.371-.65.456-1.43.253-2.36ZM121.268 1202.42l2.265 18.91.103.01 6.755-17.82 6.373.77-3.023 25.02-4.862-.59.879-7.27 1.587-9.67-.101-.03-6.831 16.43-3.247-.39-2.686-17.45-.105.01-.729 9.64-.878 7.26-4.862-.58 3.023-25.02 6.339.77ZM150.168 1229.91l-6.17-2.47-3.252 4.5-4.611-1.84 15.944-20.76 4.756 1.9-2.785 26.02-4.612-1.84.73-5.51Zm-3.78-5.74 4.306 1.72 1.205-9.11-.096-.04-5.415 7.43ZM165.519 1232.89l-5.728 8.23-4.032-2.81 14.394-20.66 6.744 4.7c2.035 1.42 3.258 3.06 3.669 4.95.411 1.88-.05 3.78-1.382 5.69-.752 1.08-1.641 1.84-2.668 2.28-1.027.45-2.166.58-3.416.4.809 1.1 1.158 2.22 1.046 3.38-.112 1.16-.603 2.37-1.474 3.62l-1.018 1.46c-.396.57-.754 1.22-1.073 1.96-.319.74-.415 1.37-.289 1.9l-.207.3-4.174-2.91c-.121-.53.014-1.17.404-1.91.389-.74.831-1.47 1.326-2.18l.98-1.41c.718-1.03 1.065-1.97 1.04-2.83-.026-.87-.431-1.57-1.217-2.12l-2.925-2.04Zm2.246-3.22 2.697 1.88c.824.57 1.623.76 2.399.56.775-.21 1.486-.78 2.133-1.7.659-.95.97-1.85.934-2.71-.037-.85-.463-1.56-1.277-2.13l-2.711-1.89-4.175 5.99ZM175.593 1253.95l-3.529-3.4 17.467-18.16 3.529 3.4-17.467 18.16ZM189.136 1270.86l-2.901-3.94 8.418-15.75-.09-.06-12.951 9.52-2.922-3.97 20.299-14.93 2.922 3.98-8.404 15.73.089.07 12.938-9.52 2.901 3.95-20.299 14.92ZM206.405 1282.19l-3.364-7.76-6.541 2.83 3.955 9.13-3.604 1.56-5.916-13.65 23.119-10.02 5.902 13.62-3.605 1.57-3.941-9.1-5.764 2.5 3.364 7.76-3.605 1.56Z" style="fill:#02006d;fill-rule:nonzero" transform="matrix(.45067 0 0 .45235 58.755 -484.916)"/>
      </g>
      <path d="m258.694 87.905-16.976-77.858-16.929 77.638c-33.004 3.418-62.931 17.325-86.416 38.344l-30.88-6.676 9.422 30.278c-16.308 22.133-26.871 48.779-29.477 77.716L9.296 244.518l78.844 17.303c3.44 26.139 13.398 50.227 28.18 70.567l-9.385 28.509 29.479-5.88c23.951 22.183 54.912 36.836 89.149 40.207l19.047 78.086 15.108-78.507c32.97-4.077 62.726-18.637 85.859-40.255l30.439 6.769-9.39-30.973c14.896-21.209 24.615-46.344 27.299-73.544l78.503-14.83-78.932-19.789c-3.307-26.698-13.407-51.291-28.508-71.982l11.102-30.288-33.573 5.588c-22.915-20.298-51.884-33.861-83.823-37.594Zm-17.951 20.834c72.935 0 132.148 59.45 132.148 132.677 0 73.226-59.213 132.676-132.148 132.676-72.934 0-132.148-59.45-132.148-132.676 0-73.227 59.214-132.677 132.148-132.677Z" style="fill:#02006d" transform="matrix(.43184 0 0 .43172 5.282 5.71)" id="outside-circle"/>
    </g>
  </g>
</svg>
