<svg viewBox="0 0 178 178" xmlns="http://www.w3.org/2000/svg" xml:space="preserve" style="fill-rule:evenodd;clip-rule:evenodd;stroke-linecap:round;stroke-linejoin:round;stroke-miterlimit:1.5"><g id="service"><path d="M73.57 94.964h1.893c1.262 6.661 7.804 10.347 13.943 10.347 6.082 0 12.623-3.686 13.885-10.347h1.894c.574 0 .918-.776.459-1.293l-3.844-4.333c-.287-.323-.689-.323-.976 0l-3.844 4.333c-.459.517-.115 1.293.459 1.293h2.065c-1.204 3.557-4.877 5.626-8.319 6.143V88.756h2.983c.402 0 .689-.323.689-.776v-2.586c0-.388-.287-.776-.689-.776h-2.983v-.324c2.18-.84 3.672-3.168 3.672-5.82.057-3.427-2.41-6.208-5.394-6.208-3.098-.064-5.565 2.716-5.565 6.144 0 2.716 1.492 5.044 3.672 5.884v.324h-2.984c-.401 0-.688.388-.688.776v2.586c0 .453.287.776.688.776h2.984v12.351c-3.385-.517-7.115-2.586-8.32-6.143h2.066c.573 0 .918-.776.459-1.293l-3.845-4.333c-.287-.323-.688-.323-.975 0l-3.844 4.333c-.459.517-.115 1.293.459 1.293ZM89.406 76.34c.975 0 1.836.97 1.836 2.07 0 1.164-.861 2.069-1.836 2.069-1.033 0-1.836-.905-1.836-2.069 0-1.1.803-2.07 1.836-2.07ZM62.04 120.338c.308-.279.478-.578.511-.898.034-.32-.047-.758-.241-1.313-.466-1.073-.706-1.978-.718-2.714-.013-.737.308-1.402.963-1.996.648-.587 1.393-.829 2.238-.725.844.103 1.606.522 2.285 1.257.689.745 1.022 1.557.999 2.434-.023.878-.387 1.623-1.091 2.236l-.043.019-1.371-1.484c.361-.328.572-.683.63-1.066.059-.383-.063-.737-.364-1.063-.282-.305-.594-.458-.938-.459-.344-.001-.657.126-.939.382-.26.237-.387.526-.38.869.008.342.126.842.353 1.498.433.972.628 1.821.585 2.548-.042.727-.394 1.391-1.056 1.992-.684.62-1.428.88-2.233.78-.804-.1-1.553-.525-2.245-1.274-.69-.745-1.067-1.59-1.133-2.536-.066-.945.32-1.781 1.158-2.508l.042-.019 1.377 1.489c-.488.443-.745.864-.769 1.261-.025.398.153.803.535 1.215.298.323.606.483.924.482.317-.002.624-.138.921-.407ZM72.306 125.604l-3.065-1.867-1.588 2.558 3.604 2.195-.875 1.41-5.39-3.284 5.612-9.039 5.378 3.276-.875 1.409-3.592-2.188-1.399 2.254 3.065 1.867-.875 1.409ZM77.576 128.212l-1.131 4.068-2.014-.549 2.842-10.224 3.37.919c1.016.277 1.741.761 2.172 1.45.432.69.516 1.508.253 2.454-.149.534-.397.962-.746 1.283-.348.32-.786.532-1.314.635.481.323.78.722.9 1.198s.093 1.023-.079 1.642l-.201.724a4.659 4.659 0 0 0-.151.93c-.023.339.028.603.153.794l-.041.147-2.086-.569c-.124-.195-.16-.467-.109-.816.051-.348.126-.699.223-1.05l.194-.696c.142-.51.146-.935.014-1.273-.132-.339-.395-.562-.787-.669l-1.462-.398Zm.444-1.595 1.348.367c.411.113.758.074 1.04-.117.282-.19.486-.515.614-.974.13-.468.127-.87-.009-1.204-.136-.334-.407-.557-.814-.668l-1.355-.37-.824 2.966ZM89.185 131.407l.088.407.044-.001.074-.388 1.646-7.952 2.2-.039-2.805 10.663-2.178.038-3.183-10.558 2.199-.038 1.915 7.868ZM99.675 132.6l-2.016.518-2.689-10.272 2.016-.518 2.689 10.272ZM108.785 124.89l.04.029c.56 1.025.729 1.932.507 2.72-.223.788-.824 1.439-1.803 1.953-.98.514-1.921.628-2.825.34-.903-.287-1.646-.976-2.23-2.066l-1.499-2.802c-.581-1.086-.749-2.077-.504-2.973.245-.896.842-1.593 1.791-2.091 1.006-.528 1.908-.661 2.706-.398.799.263 1.486.911 2.062 1.945l.001.049-1.782.935c-.303-.629-.626-1.029-.966-1.198-.34-.169-.753-.126-1.239.129-.416.218-.648.547-.697.985-.048.438.102.984.452 1.637l1.507 2.817c.355.662.736 1.092 1.145 1.29.408.198.84.178 1.295-.061.447-.234.689-.525.728-.873.039-.347-.118-.825-.47-1.432l1.781-.935ZM114.967 117.936l-2.599 2.465 2.097 2.168 3.056-2.898 1.155 1.195-4.57 4.335-7.41-7.664 4.56-4.325 1.155 1.194-3.045 2.889 1.847 1.911 2.599-2.465 1.155 1.195Z" style="fill:#02006d;fill-rule:nonzero"/></g><ellipse id="skinny-circle" cx="88.718" cy="88.038" rx="27.277" ry="27.392" style="fill:none;stroke:#02006d;stroke-width:2.76px"/><g id="matts-marine"><path d="m46.894 70.793 7.448 1.652.019-.038-5.843-4.929 1.134-2.317 9.058 4.469-.865 1.767-2.632-1.298-3.448-1.887-.024.034 5.309 4.775-.578 1.18-6.951-1.297-.012.041 3.548 1.556 2.632 1.299-.866 1.767-9.058-4.469 1.129-2.305ZM61.117 63.457l-1.746 2.017 1.273 1.829-1.305 1.508-5.755-8.799 1.346-1.554 9.478 4.497-1.305 1.507-1.986-1.005Zm-2.67.677 1.218-1.408-3.29-1.662-.027.031 2.099 3.039ZM63.702 52.703l-1.773 1.429 5.335 6.667-1.535 1.237-5.335-6.667-1.762 1.42-.985-1.231 5.07-4.087.985 1.232ZM71.286 48.487l-2.015 1.056 3.943 7.58-1.745.915-3.943-7.58-2.004 1.05-.728-1.401 5.764-3.02.728 1.4ZM73.92 47.131l.25 1.993-.8.298-.653-1.745-.689-1.859 1.235-.461.657 1.774ZM81.952 51.479c-.084-.385-.25-.668-.498-.848-.247-.181-.645-.324-1.194-.431-1.103-.132-1.96-.37-2.572-.712-.612-.343-1.008-.924-1.187-1.744-.178-.811-.024-1.537.46-2.178.484-.641 1.189-1.063 2.115-1.267.938-.207 1.763-.091 2.475.348.711.44 1.152 1.094 1.323 1.963l-.004.044-1.869.412c-.099-.453-.292-.795-.579-1.027-.288-.231-.637-.301-1.047-.21-.384.084-.657.267-.821.547-.163.281-.206.598-.129.951.071.326.25.568.535.726.285.158.752.301 1.4.429 1.004.111 1.795.359 2.373.742.578.383.958.989 1.139 1.818.188.856.05 1.589-.413 2.2-.462.61-1.166 1.019-2.109 1.227-.939.207-1.813.111-2.621-.288-.809-.399-1.315-1.115-1.517-2.148l.004-.044 1.876-.413c.134.611.358 1.022.674 1.233.316.21.733.259 1.253.144.406-.089.683-.265.832-.525.149-.261.183-.577.101-.949ZM92.543 43.509l.907 7.602.042.005 2.706-7.164 2.553.31-1.211 10.057-1.948-.236.352-2.922.636-3.89-.04-.012-2.737 6.607-1.301-.158-1.075-7.013-.043.002-.292 3.875-.351 2.922-1.948-.236L90.004 43.2l2.539.309ZM104.12 54.563l-2.471-.992-1.303 1.807-1.847-.741 6.387-8.347 1.905.765-1.115 10.463-1.848-.742.292-2.213Zm-1.514-2.309 1.725.692.483-3.665-.039-.016-2.169 2.989ZM110.27 55.762l-2.294 3.305-1.616-1.129 5.766-8.306 2.702 1.889c.815.57 1.305 1.234 1.47 1.99.164.757-.02 1.52-.554 2.289-.301.434-.657.74-1.069.919-.411.178-.867.231-1.368.158.324.441.464.895.419 1.361-.045.467-.242.951-.59 1.453l-.408.588a4.483 4.483 0 0 0-.43.79c-.128.297-.167.552-.116.762l-.083.12-1.672-1.169c-.048-.215.006-.471.162-.769.156-.298.333-.589.531-.875l.393-.565c.288-.415.426-.795.416-1.142-.01-.346-.172-.629-.487-.849l-1.172-.82Zm.9-1.296 1.08.756c.33.231.651.305.961.223.311-.083.596-.311.855-.683.264-.381.388-.743.374-1.087-.015-.344-.185-.63-.512-.858l-1.086-.76-1.672 2.409ZM114.306 64.227l-1.414-1.365 6.997-7.301 1.414 1.365-6.997 7.301ZM119.731 71.029l-1.162-1.586 3.372-6.332-.036-.025-5.188 3.829-1.171-1.598 8.132-6.001 1.17 1.597-3.366 6.328.036.026 5.182-3.825 1.163 1.586-8.132 6.001ZM126.649 75.584l-1.348-3.122-2.62 1.139 1.584 3.671-1.444.628-2.37-5.49 9.262-4.028 2.364 5.478-1.444.628-1.579-3.658-2.309 1.004 1.348 3.122-1.444.628Z" style="fill:#02006d;fill-rule:nonzero"/></g><path id="outside-circle" d="M95.734 29.878 89.217 0l-6.498 29.794c-12.669 1.311-24.156 6.648-33.171 14.714l-11.854-2.562 3.617 11.619a59.135 59.135 0 0 0-11.316 29.824L0 89.979l30.265 6.64a59.134 59.134 0 0 0 10.817 27.08l-3.602 10.94 11.315-2.256c9.194 8.513 21.079 14.135 34.221 15.429l7.312 29.966 5.799-30.127c12.656-1.565 24.078-7.152 32.958-15.448l11.684 2.597-3.604-11.886a59.11 59.11 0 0 0 10.478-28.222l30.135-5.691-30.299-7.594a59.127 59.127 0 0 0-10.943-27.623l4.261-11.623-12.887 2.144c-8.796-7.789-19.916-12.994-32.176-14.427Zm-6.891 7.995c27.997 0 50.726 22.814 50.726 50.915s-22.729 50.915-50.726 50.915c-27.996 0-50.726-22.814-50.726-50.915s22.73-50.915 50.726-50.915Z" style="fill:#02006d"/></svg>