<?xml version="1.0" encoding="UTF-8" standalone="no"?>
<!DOCTYPE svg PUBLIC "-//W3C//DTD SVG 1.1//EN" "http://www.w3.org/Graphics/SVG/1.1/DTD/svg11.dtd">
<svg width="100%" height="100%" viewBox="0 0 178 178" version="1.1" xmlns="http://www.w3.org/2000/svg" xmlns:xlink="http://www.w3.org/1999/xlink" xml:space="preserve" xmlns:serif="http://www.serif.com/" style="fill-rule:evenodd;clip-rule:evenodd;stroke-linejoin:round;stroke-miterlimit:2;">
    <g transform="matrix(1,0,0,1,-195.716,-234.327)">
        <g id="whole-logo" transform="matrix(0.888889,0,0,0.888889,187.453,225.396)">
            <g id="service"> 
                <g transform="matrix(0.510262,0,0,0.51216,51.8339,-558.995)">
                    <path d="M53.418,1375.39C54.096,1374.78 54.471,1374.12 54.545,1373.42C54.618,1372.72 54.441,1371.76 54.013,1370.54C52.984,1368.18 52.456,1366.19 52.429,1364.58C52.401,1362.96 53.109,1361.5 54.553,1360.19C55.981,1358.9 57.625,1358.37 59.487,1358.6C61.348,1358.83 63.028,1359.75 64.525,1361.36C66.045,1363 66.779,1364.78 66.728,1366.71C66.676,1368.63 65.875,1370.27 64.322,1371.62L64.228,1371.66L61.204,1368.4C62.001,1367.68 62.465,1366.9 62.594,1366.06C62.723,1365.22 62.456,1364.44 61.791,1363.72C61.17,1363.05 60.48,1362.72 59.723,1362.71C58.965,1362.71 58.275,1362.99 57.653,1363.56C57.079,1364.07 56.8,1364.71 56.816,1365.46C56.832,1366.21 57.092,1367.31 57.594,1368.75C58.548,1370.89 58.978,1372.75 58.884,1374.35C58.79,1375.95 58.013,1377.41 56.554,1378.73C55.046,1380.09 53.406,1380.66 51.632,1380.44C49.858,1380.22 48.208,1379.29 46.681,1377.64C45.161,1376 44.329,1374.15 44.184,1372.07C44.039,1370 44.89,1368.16 46.737,1366.56L46.831,1366.52L49.866,1369.79C48.789,1370.76 48.224,1371.69 48.17,1372.56C48.116,1373.43 48.509,1374.32 49.349,1375.23C50.006,1375.94 50.685,1376.29 51.386,1376.29C52.086,1376.28 52.764,1375.99 53.418,1375.39Z" style="fill:rgb(2,0,109);fill-rule:nonzero;"/>
                </g>
                <g transform="matrix(0.510262,0,0,0.51216,51.8339,-558.995)">
                    <path d="M76.052,1386.96L69.294,1382.86L65.793,1388.48L73.739,1393.3L71.81,1396.4L59.925,1389.18L72.299,1369.33L84.156,1376.52L82.227,1379.62L74.308,1374.81L71.223,1379.76L77.981,1383.87L76.052,1386.96Z" style="fill:rgb(2,0,109);fill-rule:nonzero;"/>
                </g>
                <g transform="matrix(0.510262,0,0,0.51216,51.8339,-558.995)">
                    <path d="M87.671,1392.69L85.178,1401.63L80.735,1400.42L87.002,1377.96L94.431,1379.98C96.673,1380.59 98.27,1381.65 99.222,1383.17C100.173,1384.68 100.359,1386.48 99.779,1388.56C99.452,1389.73 98.904,1390.67 98.135,1391.37C97.366,1392.08 96.401,1392.54 95.238,1392.77C96.297,1393.48 96.958,1394.35 97.221,1395.4C97.485,1396.45 97.427,1397.65 97.048,1399.01L96.605,1400.6C96.432,1401.21 96.321,1401.89 96.27,1402.64C96.219,1403.38 96.332,1403.96 96.608,1404.38L96.518,1404.71L91.919,1403.46C91.646,1403.03 91.566,1402.43 91.679,1401.66C91.792,1400.9 91.956,1400.13 92.171,1399.36L92.597,1397.83C92.91,1396.71 92.921,1395.78 92.629,1395.03C92.337,1394.29 91.759,1393.8 90.893,1393.56L87.671,1392.69ZM88.649,1389.18L91.621,1389.99C92.528,1390.24 93.292,1390.15 93.914,1389.74C94.535,1389.32 94.986,1388.6 95.268,1387.6C95.555,1386.57 95.549,1385.68 95.249,1384.95C94.949,1384.22 94.351,1383.73 93.454,1383.48L90.466,1382.67L88.649,1389.18Z" style="fill:rgb(2,0,109);fill-rule:nonzero;"/>
                </g>
                <g transform="matrix(0.510262,0,0,0.51216,51.8339,-558.995)">
                    <path d="M113.264,1399.71L113.459,1400.6L113.556,1400.6L113.719,1399.75L117.349,1382.28L122.199,1382.19L116.015,1405.62L111.214,1405.7L104.194,1382.51L109.044,1382.42L113.264,1399.71Z" style="fill:rgb(2,0,109);fill-rule:nonzero;"/>
                </g>
                <g transform="matrix(0.510262,0,0,0.51216,51.8339,-558.995)">
                    <path d="M136.393,1402.33L131.949,1403.46L126.02,1380.9L130.464,1379.76L136.393,1402.33Z" style="fill:rgb(2,0,109);fill-rule:nonzero;"/>
                </g>
                <g transform="matrix(0.510262,0,0,0.51216,51.8339,-558.995)">
                    <path d="M156.479,1385.39L156.567,1385.45C157.802,1387.71 158.174,1389.7 157.684,1391.43C157.193,1393.16 155.868,1394.59 153.709,1395.72C151.549,1396.85 149.473,1397.1 147.482,1396.47C145.49,1395.84 143.851,1394.32 142.564,1391.93L139.259,1385.78C137.977,1383.39 137.607,1381.21 138.147,1379.24C138.688,1377.28 140.004,1375.75 142.097,1374.65C144.314,1373.49 146.303,1373.2 148.064,1373.78C149.824,1374.35 151.339,1375.78 152.608,1378.05L152.611,1378.16L148.683,1380.21C148.013,1378.83 147.303,1377.95 146.553,1377.58C145.803,1377.21 144.892,1377.3 143.822,1377.86C142.905,1378.34 142.392,1379.06 142.285,1380.03C142.178,1380.99 142.51,1382.19 143.281,1383.62L146.604,1389.81C147.385,1391.26 148.226,1392.21 149.127,1392.64C150.028,1393.08 150.98,1393.03 151.984,1392.51C152.968,1391.99 153.503,1391.36 153.589,1390.59C153.674,1389.83 153.329,1388.78 152.551,1387.45L156.479,1385.39Z" style="fill:rgb(2,0,109);fill-rule:nonzero;"/>
                </g>
                <g transform="matrix(0.510262,0,0,0.51216,51.8339,-558.995)">
                    <path d="M170.108,1370.12L164.378,1375.53L169.001,1380.3L175.739,1373.93L178.286,1376.55L168.209,1386.08L151.872,1369.24L161.925,1359.74L164.473,1362.36L157.758,1368.71L161.831,1372.91L167.561,1367.49L170.108,1370.12Z" style="fill:rgb(2,0,109);fill-rule:nonzero;"/>
                </g>
            </g>
            <g id="anchor" transform="matrix(0.344268,0,0,0.387996,90.8447,90.9691)">
                <path d="M3.535,66.785L9.722,66.785C13.847,86.097 35.222,96.785 55.285,96.785C75.16,96.785 96.535,86.097 100.66,66.785L106.847,66.785C108.722,66.785 109.847,64.535 108.347,63.035L95.785,50.472C94.847,49.535 93.535,49.535 92.597,50.472L80.035,63.035C78.535,64.535 79.66,66.785 81.535,66.785L88.285,66.785C84.347,77.097 72.347,83.097 61.097,84.597L61.097,48.785L70.847,48.785C72.16,48.785 73.097,47.847 73.097,46.535L73.097,39.035C73.097,37.91 72.16,36.785 70.847,36.785L61.097,36.785L61.097,35.847C68.222,33.41 73.097,26.66 73.097,18.972C73.285,9.035 65.222,0.972 55.472,0.972C45.347,0.785 37.285,8.847 37.285,18.785C37.285,26.66 42.16,33.41 49.285,35.847L49.285,36.785L39.535,36.785C38.222,36.785 37.285,37.91 37.285,39.035L37.285,46.535C37.285,47.847 38.222,48.785 39.535,48.785L49.285,48.785L49.285,84.597C38.222,83.097 26.035,77.097 22.097,66.785L28.847,66.785C30.722,66.785 31.847,64.535 30.347,63.035L17.785,50.472C16.847,49.535 15.535,49.535 14.597,50.472L2.035,63.035C0.535,64.535 1.66,66.785 3.535,66.785ZM55.285,12.785C58.472,12.785 61.285,15.597 61.285,18.785C61.285,22.16 58.472,24.785 55.285,24.785C51.91,24.785 49.285,22.16 49.285,18.785C49.285,15.597 51.91,12.785 55.285,12.785Z" style="fill:rgb(2,0,109);fill-rule:nonzero;"/>
            </g>
            <g id="extra-skinny-circle" serif:id="extra skinny circle" transform="matrix(0.818307,0,0,0.821756,-22.6695,-893.046)">
                <path d="M161.032,1180.11C139.289,1180.11 121.633,1197.76 121.633,1219.51C121.633,1241.25 139.289,1258.9 161.032,1258.9C182.774,1258.9 200.43,1241.25 200.43,1219.51C200.43,1197.76 182.774,1180.11 161.032,1180.11ZM161.032,1183.9C180.683,1183.9 196.633,1199.85 196.633,1219.51C196.633,1239.16 180.683,1255.11 161.032,1255.11C141.381,1255.11 125.43,1239.16 125.43,1219.51C125.43,1199.85 141.381,1183.9 161.032,1183.9Z" style="fill:rgb(2,0,109);"/>
            </g>
            <g id="matts-marine" serif:id="matts marine">
                <g transform="matrix(0.45067,0,0,0.452346,58.7553,-484.916)">
                    <path d="M7.314,1270.28L25.907,1274.38L25.953,1274.29L11.367,1262.03L14.199,1256.27L36.81,1267.38L34.65,1271.78L28.081,1268.55L19.474,1263.86L19.413,1263.94L32.665,1275.82L31.223,1278.75L13.873,1275.53L13.843,1275.63L22.699,1279.5L29.268,1282.73L27.108,1287.12L4.497,1276.01L7.314,1270.28Z" style="fill:rgb(2,0,109);fill-rule:nonzero;"/>
                </g>
                <g transform="matrix(0.45067,0,0,0.452346,58.7553,-484.916)">
                    <path d="M42.819,1252.03L38.46,1257.05L41.637,1261.6L38.379,1265.35L24.015,1243.46L27.374,1239.6L51.035,1250.78L47.777,1254.53L42.819,1252.03ZM36.153,1253.71L39.195,1250.21L30.981,1246.08L30.913,1246.16L36.153,1253.71Z" style="fill:rgb(2,0,109);fill-rule:nonzero;"/>
                </g>
                <g transform="matrix(0.45067,0,0,0.452346,58.7553,-484.916)">
                    <path d="M49.272,1225.29L44.847,1228.84L58.164,1245.42L54.332,1248.5L41.015,1231.92L36.617,1235.45L34.157,1232.39L46.813,1222.22L49.272,1225.29Z" style="fill:rgb(2,0,109);fill-rule:nonzero;"/>
                </g>
                <g transform="matrix(0.45067,0,0,0.452346,58.7553,-484.916)">
                    <path d="M68.205,1214.8L63.173,1217.43L73.016,1236.28L68.66,1238.56L58.817,1219.7L53.816,1222.31L51.998,1218.83L66.387,1211.32L68.205,1214.8Z" style="fill:rgb(2,0,109);fill-rule:nonzero;"/>
                </g>
                <g transform="matrix(0.45067,0,0,0.452346,58.7553,-484.916)">
                    <path d="M74.778,1211.43L75.402,1216.39L73.407,1217.13L71.775,1212.79L70.057,1208.16L73.138,1207.02L74.778,1211.43Z" style="fill:rgb(2,0,109);fill-rule:nonzero;"/>
                </g>
                <g transform="matrix(0.45067,0,0,0.452346,58.7553,-484.916)">
                    <path d="M94.83,1222.24C94.619,1221.29 94.205,1220.58 93.587,1220.13C92.969,1219.68 91.975,1219.33 90.605,1219.06C87.852,1218.73 85.712,1218.14 84.184,1217.29C82.657,1216.44 81.669,1214.99 81.221,1212.95C80.778,1210.94 81.161,1209.13 82.37,1207.54C83.579,1205.94 85.339,1204.89 87.649,1204.38C89.992,1203.87 92.052,1204.16 93.827,1205.25C95.602,1206.34 96.704,1207.97 97.131,1210.13L97.12,1210.24L92.455,1211.27C92.208,1210.14 91.725,1209.29 91.009,1208.71C90.292,1208.14 89.421,1207.96 88.395,1208.19C87.438,1208.4 86.755,1208.85 86.347,1209.55C85.939,1210.25 85.832,1211.04 86.025,1211.92C86.203,1212.73 86.648,1213.33 87.36,1213.72C88.073,1214.12 89.237,1214.47 90.854,1214.79C93.36,1215.07 95.335,1215.68 96.778,1216.63C98.222,1217.59 99.17,1219.09 99.622,1221.15C100.09,1223.29 99.746,1225.11 98.591,1226.63C97.436,1228.14 95.681,1229.16 93.326,1229.68C90.983,1230.19 88.801,1229.95 86.782,1228.96C84.763,1227.97 83.501,1226.19 82.996,1223.62L83.008,1223.51L87.689,1222.48C88.023,1224 88.584,1225.03 89.373,1225.55C90.161,1226.07 91.203,1226.19 92.499,1225.91C93.513,1225.69 94.206,1225.25 94.577,1224.6C94.948,1223.95 95.033,1223.17 94.83,1222.24Z" style="fill:rgb(2,0,109);fill-rule:nonzero;"/>
                </g>
                <g transform="matrix(0.45067,0,0,0.452346,58.7553,-484.916)">
                    <path d="M121.268,1202.42L123.533,1221.33L123.636,1221.34L130.391,1203.52L136.764,1204.29L133.741,1229.31L128.879,1228.72L129.758,1221.45L131.345,1211.78L131.244,1211.75L124.413,1228.18L121.166,1227.79L118.48,1210.34L118.375,1210.35L117.646,1219.99L116.768,1227.25L111.906,1226.67L114.929,1201.65L121.268,1202.42Z" style="fill:rgb(2,0,109);fill-rule:nonzero;"/>
                </g>
                <g transform="matrix(0.45067,0,0,0.452346,58.7553,-484.916)">
                    <path d="M150.168,1229.91L143.998,1227.44L140.746,1231.94L136.135,1230.1L152.079,1209.34L156.835,1211.24L154.05,1237.26L149.438,1235.42L150.168,1229.91ZM146.388,1224.17L150.694,1225.89L151.899,1216.78L151.803,1216.74L146.388,1224.17Z" style="fill:rgb(2,0,109);fill-rule:nonzero;"/>
                </g>
                <g transform="matrix(0.45067,0,0,0.452346,58.7553,-484.916)">
                    <path d="M165.519,1232.89L159.791,1241.12L155.759,1238.31L170.153,1217.65L176.897,1222.35C178.932,1223.77 180.155,1225.41 180.566,1227.3C180.977,1229.18 180.516,1231.08 179.184,1232.99C178.432,1234.07 177.543,1234.83 176.516,1235.27C175.489,1235.72 174.35,1235.85 173.1,1235.67C173.909,1236.77 174.258,1237.89 174.146,1239.05C174.034,1240.21 173.543,1241.42 172.672,1242.67L171.654,1244.13C171.258,1244.7 170.9,1245.35 170.581,1246.09C170.262,1246.83 170.166,1247.46 170.292,1247.99L170.085,1248.29L165.911,1245.38C165.79,1244.85 165.925,1244.21 166.315,1243.47C166.704,1242.73 167.146,1242 167.641,1241.29L168.621,1239.88C169.339,1238.85 169.686,1237.91 169.661,1237.05C169.635,1236.18 169.23,1235.48 168.444,1234.93L165.519,1232.89ZM167.765,1229.67L170.462,1231.55C171.286,1232.12 172.085,1232.31 172.861,1232.11C173.636,1231.9 174.347,1231.33 174.994,1230.41C175.653,1229.46 175.964,1228.56 175.928,1227.7C175.891,1226.85 175.465,1226.14 174.651,1225.57L171.94,1223.68L167.765,1229.67Z" style="fill:rgb(2,0,109);fill-rule:nonzero;"/>
                </g>
                <g transform="matrix(0.45067,0,0,0.452346,58.7553,-484.916)">
                    <path d="M175.593,1253.95L172.064,1250.55L189.531,1232.39L193.06,1235.79L175.593,1253.95Z" style="fill:rgb(2,0,109);fill-rule:nonzero;"/>
                </g>
                <g transform="matrix(0.45067,0,0,0.452346,58.7553,-484.916)">
                    <path d="M189.136,1270.86L186.235,1266.92L194.653,1251.17L194.563,1251.11L181.612,1260.63L178.69,1256.66L198.989,1241.73L201.911,1245.71L193.507,1261.44L193.596,1261.51L206.534,1251.99L209.435,1255.94L189.136,1270.86Z" style="fill:rgb(2,0,109);fill-rule:nonzero;"/>
                </g>
                <g transform="matrix(0.45067,0,0,0.452346,58.7553,-484.916)">
                    <path d="M206.405,1282.19L203.041,1274.43L196.5,1277.26L200.455,1286.39L196.851,1287.95L190.935,1274.3L214.054,1264.28L219.956,1277.9L216.351,1279.47L212.41,1270.37L206.646,1272.87L210.01,1280.63L206.405,1282.19Z" style="fill:rgb(2,0,109);fill-rule:nonzero;"/>
                </g>
            </g>
            <g id="outside-circle" transform="matrix(0.431842,0,0,0.43172,5.2815,5.70933)">
                <path d="M258.694,87.905L241.718,10.047L224.789,87.685C191.785,91.103 161.858,105.01 138.373,126.029L107.493,119.353L116.915,149.631C100.607,171.764 90.044,198.41 87.438,227.347L9.296,244.518L88.14,261.821C91.58,287.96 101.538,312.048 116.32,332.388L106.935,360.897L136.414,355.017C160.365,377.2 191.326,391.853 225.563,395.224L244.61,473.31L259.718,394.803C292.688,390.726 322.444,376.166 345.577,354.548L376.016,361.317L366.626,330.344C381.522,309.135 391.241,284 393.925,256.8L472.428,241.97L393.496,222.181C390.189,195.483 380.089,170.89 364.988,150.199L376.09,119.911L342.517,125.499C319.602,105.201 290.633,91.638 258.694,87.905ZM240.743,108.739C313.678,108.739 372.891,168.189 372.891,241.416C372.891,314.642 313.678,374.092 240.743,374.092C167.809,374.092 108.595,314.642 108.595,241.416C108.595,168.189 167.809,108.739 240.743,108.739Z" style="fill:rgb(2,0,109);"/>
            </g>
        </g>
    </g>
</svg>
